<svg width="16" height="17" viewBox="0 0 16 17" fill="none" xmlns="http://www.w3.org/2000/svg">
<path d="M4.25032 4.22265C4.09714 4.45241 4.15923 4.76285 4.38899 4.91603C4.61876 5.0692 4.92919 5.00711 5.08237 4.77735L4.25032 4.22265ZM5.60385 3.09373L6.01988 3.37108V3.37108L5.60385 3.09373ZM10.3955 3.09373L10.8115 2.81638L10.3955 3.09373ZM10.917 4.77735C11.0702 5.00711 11.3806 5.0692 11.6104 4.91603C11.8401 4.76285 11.9022 4.45241 11.749 4.22265L10.917 4.77735ZM9.49967 9.5C9.49967 10.3284 8.8281 11 7.99967 11V12C9.38039 12 10.4997 10.8807 10.4997 9.5H9.49967ZM7.99967 11C7.17125 11 6.49967 10.3284 6.49967 9.5H5.49967C5.49967 10.8807 6.61896 12 7.99967 12V11ZM6.49967 9.5C6.49967 8.67157 7.17125 8 7.99967 8V7C6.61896 7 5.49967 8.11929 5.49967 9.5H6.49967ZM7.99967 8C8.8281 8 9.49967 8.67157 9.49967 9.5H10.4997C10.4997 8.11929 9.38039 7 7.99967 7V8ZM5.08237 4.77735L6.01988 3.37108L5.18783 2.81638L4.25032 4.22265L5.08237 4.77735ZM6.71325 3H9.2861V2H6.71325V3ZM9.97947 3.37108L10.917 4.77735L11.749 4.22265L10.8115 2.81638L9.97947 3.37108ZM9.2861 3C9.56472 3 9.82492 3.13925 9.97947 3.37108L10.8115 2.81638C10.4715 2.30635 9.89908 2 9.2861 2V3ZM6.01988 3.37108C6.17443 3.13925 6.43463 3 6.71325 3V2C6.10027 2 5.52785 2.30635 5.18783 2.81638L6.01988 3.37108ZM3.99967 5H11.9997V4H3.99967V5ZM14.1663 7.16667V11.8333H15.1663V7.16667H14.1663ZM11.9997 14H3.99967V15H11.9997V14ZM1.83301 11.8333V7.16667H0.833008V11.8333H1.83301ZM3.99967 14C2.80306 14 1.83301 13.03 1.83301 11.8333H0.833008C0.833008 13.5822 2.25077 15 3.99967 15V14ZM14.1663 11.8333C14.1663 13.03 13.1963 14 11.9997 14V15C13.7486 15 15.1663 13.5822 15.1663 11.8333H14.1663ZM11.9997 5C13.1963 5 14.1663 5.97005 14.1663 7.16667H15.1663C15.1663 5.41777 13.7486 4 11.9997 4V5ZM3.99967 4C2.25077 4 0.833008 5.41777 0.833008 7.16667H1.83301C1.83301 5.97005 2.80306 5 3.99967 5V4Z" fill="#FEFEFE"/>
</svg>
